<svg width="110" height="110" viewBox="0 0 110 110" fill="none" xmlns="http://www.w3.org/2000/svg">
<circle cx="55" cy="55" r="55" fill="#008000" fill-opacity="0.1"/>
<path d="M76 70.75L73.5255 68.2755L69 72.801V58.5H65.5V72.801L60.9745 68.2755L58.5 70.75L67.25 79.5L76 70.75Z" fill="#23B123"/>
<path d="M44.5 76V44.5H65.5V53.25H69V37.5C68.9991 36.572 68.63 35.6823 67.9739 35.0261C67.3177 34.37 66.428 34.0009 65.5 34H44.5C43.572 34.0009 42.6823 34.37 42.0261 35.0261C41.37 35.6823 41.0009 36.572 41 37.5V76C41.0009 76.928 41.37 77.8177 42.0261 78.4739C42.6823 79.13 43.572 79.4991 44.5 79.5H55V76H44.5ZM44.5 37.5H65.5V41H44.5V37.5Z" fill="#23B123"/>
</svg>
