<svg width="110" height="110" viewBox="0 0 110 110" fill="none" xmlns="http://www.w3.org/2000/svg">
<circle cx="55" cy="55" r="55" fill="#008000" fill-opacity="0.1"/>
<path d="M69 59C71.612 59 73.836 60.67 74.66 63H55V62H41C40.2545 62 39.5358 62.2775 38.9838 62.7785C38.4318 63.2795 38.0861 63.968 38.014 64.71L38 65V66.43C38 71.778 44.778 76 55 76V75H69.942C66.362 77.486 61.122 79 55 79C43.42 79 35 73.866 35 66.43V65C35 63.4087 35.6321 61.8826 36.7574 60.7574C37.8826 59.6321 39.4087 59 41 59H69ZM75 65V66.43C75 66.964 74.954 67.488 74.86 68H55V65H75ZM74.258 70H55V73H72.268C73.122 72.078 73.794 71.072 74.258 70ZM66.908 41.5C67.0321 42.4961 67.0321 43.5038 66.908 44.5H55V41.5H66.908ZM66.482 39.5C66.1587 38.4402 65.6895 37.4305 65.088 36.5H55V39.5H66.48H66.482ZM55 31C58.306 31 61.3 32.338 63.47 34.5H55V34C52.6131 34 50.3239 34.9482 48.636 36.636C46.9482 38.3239 46 40.613 46 43C46 45.3869 46.9482 47.6761 48.636 49.364C50.3239 51.0518 52.6131 52 55 52V51.5H63.47C62.0728 52.8924 60.3539 53.9189 58.4654 54.4886C56.5769 55.0583 54.5771 55.1537 52.6429 54.7663C50.7088 54.379 48.9 53.5208 47.3765 52.2677C45.8531 51.0147 44.6621 49.4054 43.9088 47.5823C43.1556 45.7593 42.8634 43.7786 43.058 41.8157C43.2527 39.8528 43.9283 37.9681 45.0249 36.3285C46.1216 34.6889 47.6055 33.3449 49.3454 32.4155C51.0853 31.4861 53.0274 30.9999 55 31ZM65.088 49.5H55V46.5H66.48C66.156 47.572 65.684 48.58 65.088 49.5Z" fill="#23B123"/>
</svg>
