<svg width="110" height="110" viewBox="0 0 110 110" fill="none" xmlns="http://www.w3.org/2000/svg">
<circle cx="55" cy="55" r="55" fill="#008000" fill-opacity="0.1"/>
<path d="M67.2502 62.9012C67.2502 54.825 60.6352 53.9045 55.3204 53.166C49.5279 52.361 46.2502 51.661 46.2502 46.6735C46.2502 42.4875 50.6374 41 54.3947 41C56.2671 40.9395 58.1271 41.325 59.8212 42.1246C61.5154 42.9242 62.9952 44.1151 64.1387 45.599L66.8617 43.401C65.6371 41.8263 64.1134 40.5092 62.3781 39.5253C60.6428 38.5414 58.7302 37.9102 56.7502 37.668V32.25H53.2502V37.5385C46.9239 37.9235 42.7502 41.4935 42.7502 46.6735C42.7502 54.951 49.4527 55.8837 54.8374 56.631C60.5302 57.4237 63.7502 58.1045 63.7502 62.9012C63.7502 68.2072 58.2674 69 55.0002 69C48.9977 69 46.4637 67.313 44.1117 64.401L41.3887 66.599C42.776 68.4272 44.5704 69.9068 46.6293 70.9205C48.6883 71.9342 50.9552 72.4541 53.2502 72.4388V77.75H56.7502V72.4212C63.2707 71.8893 67.2502 68.349 67.2502 62.9012Z" fill="#23B123"/>
</svg>
